<svg width="128" height="185" viewBox="0 0 128 185" fill="none" xmlns="http://www.w3.org/2000/svg">
<path opacity="0.1" d="M22.9007 119.144L61.2425 179.535C62.8364 182.046 66.5152 182.001 68.0475 179.452L104.356 119.061C105.959 116.395 104.039 113 100.928 113H26.2776C23.1232 113 21.21 116.481 22.9007 119.144Z" fill="white"/>
<path d="M11.8898 59.1405L61.5398 137.519C63.1331 140.034 66.8175 139.99 68.3491 137.436L115.366 59.0577C116.966 56.3916 115.045 53 111.936 53H15.2689C12.1162 53 10.2027 56.4773 11.8898 59.1405Z" fill="#4CB8F7"/>
<path d="M3.8797 6.13734L62.2693 98.5046C63.8619 101.024 67.5516 100.979 69.0824 98.4218L124.376 6.05451C125.972 3.38834 124.051 0 120.944 0H7.26079C4.10984 0 2.19603 3.47393 3.8797 6.13734Z" fill="white"/>
</svg>
