<?xml version="1.0" standalone="no"?>
<!DOCTYPE svg PUBLIC "-//W3C//DTD SVG 20010904//EN"
 "http://www.w3.org/TR/2001/REC-SVG-20010904/DTD/svg10.dtd">
<svg version="1.0" xmlns="http://www.w3.org/2000/svg"
 width="293.000000pt" height="266.000000pt" viewBox="0 0 293.000000 266.000000"
 preserveAspectRatio="xMidYMid meet">

<g transform="translate(0.000000,266.000000) scale(0.100000,-0.100000)"
fill="#000000" stroke="none">
<path d="M1409 2499 c-55 -16 -129 -78 -162 -137 -73 -131 -36 -323 101 -517
51 -72 178 -216 339 -385 l91 -95 32 30 c67 63 298 314 362 395 119 148 178
286 178 415 0 101 -22 159 -85 222 -135 134 -326 100 -464 -82 -22 -28 -23
-29 -34 -10 -24 44 -103 116 -153 141 -59 29 -148 39 -205 23z m184 -66 c56
-28 167 -148 167 -180 0 -5 -71 -19 -157 -31 -157 -23 -200 -36 -290 -93 l-32
-20 -11 41 c-20 73 7 179 58 233 68 72 181 93 265 50z m580 0 c83 -43 134
-147 124 -254 -7 -77 -13 -85 -42 -50 -39 45 -88 63 -200 71 -79 6 -232 34
-253 46 -8 5 29 63 67 106 46 52 97 87 145 99 41 11 122 2 159 -18z"/>
</g>
</svg>
