<svg width="296" height="192" viewBox="0 0 296 192" fill="none" xmlns="http://www.w3.org/2000/svg">
<path d="M24.3839 1C17.501 1 11.8109 6.36486 11.4064 13.2359L1.74984 177.236C1.31016 184.703 7.24722 191 14.7274 191H273.443C280.378 191 286.092 185.557 286.428 178.63L294.388 14.6302C294.748 7.2118 288.831 1 281.403 1H24.3839Z" fill="url(#paint0_linear_7374_38392)" stroke="url(#paint1_linear_7374_38392)" stroke-width="2"/>
<mask id="mask0_7374_38392" style="mask-type:alpha" maskUnits="userSpaceOnUse" x="0" y="0" width="296" height="192">
<path d="M24.3839 1C17.501 1 11.8109 6.36486 11.4064 13.2359L1.74984 177.236C1.31016 184.703 7.24722 191 14.7274 191H273.443C280.378 191 286.092 185.557 286.428 178.63L294.388 14.6302C294.748 7.2118 288.831 1 281.403 1H24.3839Z" fill="url(#paint2_linear_7374_38392)" stroke="url(#paint3_linear_7374_38392)" stroke-width="2"/>
</mask>
<g mask="url(#mask0_7374_38392)">
<path opacity="0.1" d="M124.565 95.0835L124.565 95.0833C123.947 95.2873 123.507 95.4795 123.224 95.6544C122.952 95.8224 122.915 95.9186 122.913 95.918L124.565 95.0835ZM124.565 95.0835L124.578 95.0788M124.565 95.0835L124.578 95.0788M124.578 95.0788C132.394 92.2565 137.6 90.3957 140.201 89.4994L140.201 89.4994M124.578 95.0788L140.201 89.4994M140.201 89.4994C143.925 88.2145 146.163 87.4645 147.595 87.034C149.032 86.6016 149.613 86.5059 150.041 86.5002L150.045 86.5002M140.201 89.4994L150.045 86.5002M150.045 86.5002C150.119 86.4987 150.262 86.5066 150.419 86.5378C150.58 86.5699 150.713 86.6185 150.798 86.6743C150.862 86.7172 150.895 86.7606 150.915 86.7988C150.938 86.8409 150.952 86.8892 150.964 86.9492L151.455 86.858L150.964 86.9492C150.992 87.103 151.03 87.4403 151.002 87.6727L151.001 87.6767C150.603 91.1614 148.862 99.66 147.976 103.6C147.8 104.382 147.551 104.848 147.306 105.117C147.071 105.376 146.825 105.473 146.592 105.491C145.937 105.542 145.345 105.366 144.709 105.057C144.389 104.901 144.066 104.715 143.72 104.511C143.663 104.478 143.606 104.444 143.549 104.41C143.256 104.237 142.947 104.055 142.624 103.88L142.624 103.879C141.449 103.242 140.529 102.723 139.615 102.207C139.552 102.171 139.488 102.136 139.425 102.1C138.574 101.619 137.713 101.132 136.644 100.547L136.643 100.547C136.001 100.196 135.705 99.926 135.588 99.7395C135.535 99.6564 135.525 99.6014 135.525 99.5661C135.524 99.5284 135.534 99.4748 135.575 99.396C135.669 99.2192 135.873 99.0068 136.204 98.7278C136.347 98.6079 136.501 98.4851 136.667 98.3529C136.687 98.3369 136.707 98.3207 136.727 98.3044C136.914 98.1557 137.112 97.9967 137.308 97.8284M150.045 86.5002L137.308 97.8284M137.308 97.8284C137.394 97.7553 137.797 97.4447 138.377 96.9979C139.096 96.4439 140.088 95.6805 141.083 94.9011C141.974 94.2032 142.861 93.498 143.534 92.9365C143.87 92.6564 144.159 92.4075 144.37 92.2109C144.475 92.1133 144.568 92.0222 144.639 91.9428C144.675 91.9034 144.712 91.86 144.744 91.8153C144.768 91.7809 144.821 91.7041 144.85 91.6033L144.851 91.6006C144.88 91.4969 144.89 91.3525 144.864 91.206C144.837 91.0509 144.757 90.8325 144.544 90.6742C144.347 90.5275 144.129 90.4991 143.976 90.4982C143.828 90.4974 143.688 90.523 143.606 90.5378L143.599 90.539L143.596 90.5397C143.517 90.5544 143.438 90.5891 143.405 90.604L143.402 90.6052C143.35 90.6279 143.287 90.658 143.214 90.6937C143.068 90.7656 142.868 90.8685 142.616 91.0011C142.112 91.2668 141.388 91.6585 140.445 92.1752C138.559 93.209 135.79 94.7475 132.14 96.7898L132.14 96.7897L132.137 96.7913C131.111 97.3741 130.236 97.6303 129.489 97.615L129.488 97.615C128.601 97.5986 126.824 97.1868 125.444 96.8145C125.444 96.8145 125.444 96.8145 125.444 96.8145L125.314 97.2972M137.308 97.8284L122.419 95.8395C122.316 96.5119 123.336 96.7786 124.725 97.1415C124.915 97.1912 125.112 97.2427 125.314 97.2972M125.314 97.2972C126.681 97.6661 128.519 98.0972 129.479 98.1149L125.314 97.2972ZM140.038 89.0267C147.483 86.458 149.027 86.0136 150.035 86.0003L140.038 89.0267Z" stroke="white"/>
<path opacity="0.1" d="M33.48 19.5955C38.8697 17.7612 42.4628 16.5509 44.2594 15.9674C49.394 14.2977 50.4587 14.0088 51.1536 14.0002C51.3052 13.9973 51.649 14.0291 51.8708 14.1677C52.0593 14.2862 52.1111 14.445 52.1332 14.5577C52.1554 14.6703 52.1887 14.9274 52.1628 15.1268C51.8856 17.4117 50.6805 22.9522 50.0705 25.5115C49.8118 26.5948 49.3016 26.9559 48.8063 26.9934C47.7342 27.0714 46.9173 26.4388 45.8785 25.9073C44.252 25.0754 43.3315 24.5554 41.7531 23.7408C39.9269 22.802 41.1099 22.2849 42.1523 21.4414C42.4259 21.2219 47.1539 17.8594 47.2463 17.5532C47.2574 17.5157 47.2685 17.3741 47.1613 17.299C47.0541 17.2239 46.8951 17.2499 46.7768 17.2702C46.6142 17.299 44.0154 18.6423 38.9806 21.297C38.2413 21.6927 37.5759 21.8863 36.977 21.8747C36.3153 21.8632 35.0474 21.583 34.1047 21.3432C32.9477 21.0485 32.0272 20.8926 32.1085 20.3957C32.1492 20.1328 32.6076 19.8671 33.48 19.5955Z" fill="white"/>
<path opacity="0.1" d="M137.315 27.7477C144.591 25.2079 149.442 23.532 151.867 22.724C158.799 20.4122 160.236 20.0122 161.175 20.0002C161.379 19.9962 161.843 20.0402 162.143 20.2322C162.397 20.3962 162.467 20.6162 162.497 20.7722C162.527 20.9282 162.572 21.2841 162.537 21.5601C162.163 24.7239 160.536 32.3953 159.712 35.9391C159.363 37.439 158.674 37.9389 158.006 37.9909C156.559 38.0989 155.456 37.223 154.053 36.487C151.857 35.3351 150.615 34.6152 148.484 33.4872C146.019 32.1873 147.616 31.4714 149.023 30.3035C149.392 29.9995 155.775 25.3438 155.9 24.9199C155.915 24.8679 155.93 24.6719 155.785 24.5679C155.64 24.4639 155.426 24.4999 155.266 24.5279C155.046 24.5679 151.538 26.4278 144.741 30.1035C143.743 30.6515 142.845 30.9194 142.036 30.9034C141.143 30.8874 139.431 30.4995 138.159 30.1675C136.597 29.7595 135.354 29.5435 135.464 28.8556C135.519 28.4916 136.138 28.1236 137.315 27.7477Z" fill="white"/>
<path opacity="0.2" d="M4.85018 90.3562C19.9414 84.9944 30.0022 81.4564 35.0326 79.7508C49.4095 74.8702 52.3905 74.0258 54.3364 74.0005C54.7608 73.9921 55.7234 74.085 56.3445 74.4903C56.8723 74.8365 57.0172 75.3009 57.0793 75.6302C57.1414 75.9595 57.2346 76.711 57.1621 77.2936C56.3859 83.9727 53.0116 100.168 51.3037 107.649C50.5792 110.816 49.1508 111.871 47.7638 111.981C44.7621 112.209 42.4746 110.36 39.5661 108.806C35.0118 106.374 32.4345 104.854 28.0148 102.473C22.9016 99.7288 26.2138 98.2174 29.1327 95.7518C29.8986 95.1101 43.1371 85.2815 43.3958 84.3864C43.4269 84.2766 43.4579 83.8629 43.1578 83.6434C42.8576 83.4238 42.4125 83.4998 42.0813 83.5589C41.6259 83.6434 34.3494 87.5697 20.2519 95.3296C18.1818 96.4864 16.3187 97.0521 14.6419 97.0184C12.7891 96.9846 9.23884 96.1655 6.59943 95.4647C3.35969 94.6034 0.782392 94.1475 1.0101 92.6951C1.12396 91.9267 2.40744 91.1499 4.85018 90.3562Z" fill="white"/>
<path opacity="0.2" d="M241.151 80.8998C250.313 77.6545 256.421 75.5131 259.476 74.4807C268.204 71.5267 270.014 71.0156 271.196 71.0003C271.453 70.9952 272.038 71.0514 272.415 71.2967C272.735 71.5063 272.823 71.7874 272.861 71.9867C272.899 72.186 272.955 72.6409 272.911 72.9935C272.44 77.0361 270.391 86.8385 269.354 91.3666C268.915 93.2831 268.047 93.922 267.205 93.9884C265.383 94.1264 263.994 93.0071 262.228 92.0668C259.463 90.5949 257.898 89.6749 255.215 88.2337C252.11 86.5727 254.121 85.6579 255.893 84.1656C256.359 83.7771 264.396 77.8283 264.553 77.2865C264.572 77.2201 264.591 76.9696 264.409 76.8368C264.226 76.7039 263.956 76.7499 263.755 76.7857C263.479 76.8368 259.061 79.2133 250.502 83.91C249.245 84.6102 248.114 84.9526 247.095 84.9322C245.971 84.9117 243.815 84.416 242.213 83.9918C240.246 83.4705 238.681 83.1945 238.819 82.3155C238.888 81.8504 239.667 81.3802 241.151 80.8998Z" fill="white"/>
<path opacity="0.1" d="M223.063 20.7964L223.056 20.7991C222.397 21.0436 221.926 21.2743 221.621 21.4856C221.299 21.7091 221.256 21.8455 221.253 21.8719L221.252 21.8755C221.242 21.9516 221.256 21.9987 221.311 22.0618C221.385 22.1464 221.531 22.2497 221.789 22.3662C222.184 22.5441 222.703 22.6965 223.333 22.8812C223.542 22.9426 223.763 23.0075 223.996 23.0782M223.063 20.7964L223.851 23.5567M223.063 20.7964L223.07 20.7936C231.425 17.4069 236.991 15.1739 239.771 14.0984L239.771 14.0983C243.752 12.5564 246.144 11.6565 247.674 11.14C249.212 10.6209 249.83 10.507 250.284 10.5003L250.288 10.5002C250.365 10.4984 250.517 10.5078 250.682 10.5449C250.852 10.5828 250.995 10.6406 251.089 10.7103M223.063 20.7964L251.089 10.7103M223.996 23.0782L223.851 23.5567M223.996 23.0782C223.996 23.0782 223.996 23.0782 223.996 23.0781L223.851 23.5567M223.996 23.0782C224.72 23.2975 225.566 23.5343 226.354 23.7184C227.153 23.905 227.857 24.0285 228.313 24.038L228.314 24.038C229.106 24.0562 230.039 23.7514 231.14 23.0497L231.143 23.0479L231.143 23.0479C235.045 20.5972 238.004 18.751 240.02 17.5106C241.028 16.8905 241.802 16.4206 242.341 16.1018C242.61 15.9426 242.823 15.8193 242.98 15.7331C243.057 15.6903 243.125 15.6543 243.18 15.6271L243.183 15.6255C243.219 15.6078 243.304 15.5661 243.389 15.548L243.393 15.5473L243.393 15.5473L243.4 15.5457C243.488 15.528 243.64 15.4969 243.8 15.4979C243.97 15.499 244.204 15.5356 244.409 15.7066C244.62 15.8829 244.693 16.117 244.717 16.2737C244.741 16.4279 244.731 16.5779 244.706 16.6802L244.705 16.6827C244.68 16.7798 244.634 16.8575 244.608 16.898C244.576 16.9473 244.539 16.9964 244.502 17.0426C244.428 17.1354 244.33 17.243 244.219 17.3596C243.994 17.5943 243.686 17.8921 243.327 18.228C242.608 18.9013 241.66 19.747 240.708 20.5844C239.647 21.5173 238.589 22.4321 237.82 23.0973C237.197 23.6358 236.763 24.0106 236.671 24.0987M223.851 23.5567C225.312 23.9993 227.277 24.5166 228.303 24.5379C229.231 24.5592 230.263 24.2019 231.408 23.4713C239.212 18.5704 243.241 16.0905 243.493 16.0372C243.676 15.9999 243.922 15.9519 244.089 16.0905C244.255 16.2292 244.238 16.4905 244.22 16.5598C244.11 16.9961 239.719 20.7931 237.526 22.6899C236.878 23.2508 236.421 23.6455 236.325 23.738M236.671 24.0987C236.671 24.0985 236.671 24.0982 236.672 24.098L236.325 23.738M236.671 24.0987C236.671 24.0989 236.67 24.0992 236.67 24.0994L236.325 23.738M236.671 24.0987C236.462 24.3 236.251 24.4903 236.052 24.6688C236.03 24.6884 236.008 24.7078 235.987 24.727C235.81 24.8855 235.645 25.0333 235.492 25.1778C235.14 25.5105 234.91 25.7749 234.8 26.0078C234.709 26.2013 234.703 26.3599 234.817 26.5626C234.955 26.8079 235.283 27.1378 235.967 27.5566L235.968 27.557C237.11 28.259 238.03 28.843 238.94 29.4202C239.008 29.463 239.075 29.5058 239.143 29.5486C240.12 30.1682 241.104 30.7902 242.36 31.5557L242.36 31.5557C242.705 31.7658 243.035 31.9847 243.348 32.192C243.409 32.2329 243.47 32.2733 243.531 32.3131C243.901 32.558 244.247 32.7812 244.59 32.9685C245.271 33.3411 245.901 33.5496 246.594 33.4899M236.325 23.738C236.101 23.9539 235.872 24.1582 235.653 24.3547C234.29 25.5749 233.268 26.4901 235.706 27.983C236.845 28.6831 237.763 29.2653 238.673 29.8426C239.718 30.5054 240.753 31.1618 242.1 31.9827C242.436 32.1873 242.757 32.4 243.069 32.6072C244.256 33.3939 245.323 34.1019 246.638 33.9879M246.594 33.4899C246.594 33.4899 246.594 33.4899 246.593 33.4899L246.638 33.9879M246.594 33.4899C246.594 33.4898 246.595 33.4898 246.595 33.4898L246.638 33.9879M246.594 33.4899C246.834 33.468 247.103 33.3562 247.367 33.0296C247.642 32.6897 247.916 32.1091 248.108 31.1538M246.638 33.9879C247.406 33.9186 248.197 33.2519 248.598 31.2521M248.598 31.2521L248.108 31.154C248.108 31.1539 248.108 31.1538 248.108 31.1538M248.598 31.2521C249.543 26.5271 251.411 16.2985 251.841 12.0802C251.881 11.7122 251.829 11.2376 251.795 11.0296M248.598 31.2521L248.108 31.1538M248.108 31.1538C249.054 26.4261 250.917 16.2204 251.344 12.0295L251.344 12.026C251.377 11.7242 251.333 11.3014 251.302 11.1111L251.795 11.0296M251.795 11.0296L251.302 11.1111C251.276 10.9527 251.228 10.8146 251.089 10.7103M251.795 11.0296C251.761 10.8216 251.681 10.5283 251.388 10.3096M251.089 10.7103L250.277 10.0003C250.512 9.99499 251.045 10.0537 251.388 10.3096M251.089 10.7103C251.089 10.7102 251.089 10.7101 251.089 10.71L251.388 10.3096M251.089 10.7103C251.089 10.7104 251.09 10.7105 251.09 10.7107L251.388 10.3096" stroke="white"/>
<path opacity="0.1" d="M78.7616 58.4333C78.7551 58.4267 78.7607 58.4344 78.7613 58.4348C78.7614 58.4349 78.7614 58.4349 78.7614 58.4349L78.7616 58.4333M78.7616 58.4333L78.7616 58.4333M78.7616 58.4333C78.7617 58.4326 78.7618 58.4318 78.7619 58.431L78.7616 58.4333M78.7616 58.4333L78.7616 58.4333M80.0105 57.7886L80.0173 57.7862L80.0241 57.7835C86.2231 55.3845 90.3515 53.8032 92.4132 53.0417L92.4134 53.0417C95.3675 51.9494 97.1399 51.3128 98.2722 50.9478C99.4117 50.5805 99.8563 50.5047 100.175 50.5002L100.179 50.5001C100.228 50.4991 100.331 50.5049 100.446 50.5293C100.564 50.5546 100.653 50.5911 100.703 50.6265C100.739 50.6522 100.757 50.6776 100.769 50.702C100.783 50.7303 100.794 50.7656 100.802 50.8146C100.825 50.9435 100.854 51.2254 100.832 51.4167L100.832 51.4204C100.516 54.3798 99.1354 61.6014 98.4334 64.951C98.2946 65.6118 98.099 65.9963 97.9163 66.2122C97.744 66.4157 97.5755 66.4802 97.4267 66.4932C96.9417 66.5331 96.4968 66.3949 96.0025 66.1369C95.7531 66.0067 95.5003 65.8511 95.2255 65.6777C95.1811 65.6497 95.1361 65.6212 95.0905 65.5923C94.8586 65.4455 94.6114 65.289 94.3535 65.1389L94.3534 65.1389C93.4221 64.5972 92.6929 64.1571 91.9681 63.7183C91.918 63.688 91.868 63.6577 91.8178 63.6273C91.1427 63.2185 90.4589 62.8044 89.6108 62.3067L89.6101 62.3063C89.1069 62.0122 88.8888 61.7928 88.8058 61.6517C88.7505 61.5577 88.752 61.5033 88.7985 61.4092C88.8663 61.272 89.0179 61.1005 89.2791 60.8647C89.391 60.7637 89.512 60.6603 89.6436 60.5478C89.6595 60.5342 89.6756 60.5204 89.6918 60.5066C89.8396 60.3802 89.9978 60.244 90.1546 60.0997C90.222 60.0384 90.5374 59.7781 90.9924 59.4026C91.5621 58.9323 92.3508 58.2813 93.1455 57.6143C93.8523 57.0209 94.5565 56.4208 95.0921 55.9425C95.3591 55.704 95.5895 55.4911 95.7588 55.3222C95.8427 55.2384 95.9182 55.1589 95.9774 55.0887C96.0068 55.0538 96.0379 55.0146 96.0654 54.9734C96.0866 54.9417 96.1331 54.8694 96.1582 54.7748L96.1589 54.7722C96.1835 54.6773 96.1919 54.5482 96.1704 54.4177C96.1482 54.2824 96.0816 54.0768 95.8887 53.9231C95.7058 53.7774 95.5021 53.7493 95.3639 53.7485C95.2336 53.7477 95.1112 53.7716 95.0466 53.7842L95.0396 53.7855L95.0361 53.7863C94.9585 53.8019 94.8841 53.8371 94.8578 53.8495L94.8544 53.8511C94.8109 53.8715 94.7588 53.898 94.7006 53.9287C94.5831 53.9905 94.4234 54.0786 94.2235 54.1916C93.8228 54.4179 93.2479 54.7512 92.5001 55.1905C91.0038 56.0695 88.8076 57.3774 85.9123 59.1134L85.9123 59.1134L85.9094 59.1151C85.105 59.6047 84.4349 59.8101 83.8762 59.7978L83.8752 59.7978C83.5485 59.7913 83.0357 59.706 82.4436 59.5741C81.8617 59.4443 81.2367 59.2772 80.701 59.1223C80.5242 59.0711 80.3575 59.0244 80.201 58.9805C79.7372 58.8505 79.3629 58.7456 79.0779 58.623C78.8907 58.5425 78.8026 58.4779 78.7671 58.4391C78.7667 58.4387 78.7663 58.4383 78.7659 58.4379C78.7826 58.4146 78.8332 58.3538 78.9725 58.2615C79.186 58.1201 79.5246 57.9606 80.0105 57.7886Z" stroke="white"/>
</g>
<path d="M26.6726 45V29.6H30.9406V35.364H36.4186V29.6H40.6866V45H36.4186V39.148H30.9406V45H26.6726ZM57.0709 42.976C55.4869 44.5307 53.5143 45.308 51.1529 45.308C48.7916 45.308 46.8189 44.538 45.2349 42.998C43.6656 41.4433 42.8809 39.544 42.8809 37.3C42.8809 35.0707 43.6729 33.1787 45.2569 31.624C46.8556 30.0693 48.8356 29.292 51.1969 29.292C53.5583 29.292 55.5236 30.0693 57.0929 31.624C58.6769 33.164 59.4689 35.056 59.4689 37.3C59.4689 39.5293 58.6696 41.4213 57.0709 42.976ZM51.1969 41.458C52.3556 41.458 53.2943 41.0547 54.0129 40.248C54.7463 39.4413 55.1129 38.4587 55.1129 37.3C55.1129 36.156 54.7389 35.1807 53.9909 34.374C53.2429 33.5527 52.2969 33.142 51.1529 33.142C50.0089 33.142 49.0703 33.5453 48.3369 34.352C47.6183 35.1587 47.2589 36.1413 47.2589 37.3C47.2589 38.444 47.6256 39.4267 48.3589 40.248C49.1069 41.0547 50.0529 41.458 51.1969 41.458ZM61.6921 45V29.6H69.5901C71.4675 29.6 72.8681 30.062 73.7921 30.986C74.4521 31.646 74.7821 32.4893 74.7821 33.516C74.7821 35.1147 73.9901 36.2587 72.4061 36.948C73.4035 37.2707 74.1588 37.7327 74.6721 38.334C75.2001 38.9353 75.4641 39.742 75.4641 40.754C75.4641 42.074 74.9508 43.1153 73.9241 43.878C72.8975 44.626 71.4675 45 69.6341 45H61.6921ZM65.8501 41.568H69.1501C70.5141 41.568 71.1961 41.084 71.1961 40.116C71.1961 39.192 70.4995 38.73 69.1061 38.73H65.8501V41.568ZM65.8501 35.738H68.5341C69.8835 35.738 70.5581 35.276 70.5581 34.352C70.5581 33.472 69.9128 33.032 68.6221 33.032H65.8501V35.738ZM77.4187 45V29.6H81.6867V34.44H84.0187C85.94 34.44 87.4874 34.8947 88.6607 35.804C89.834 36.6987 90.4207 37.9893 90.4207 39.676C90.4207 41.3333 89.8634 42.6387 88.7487 43.592C87.634 44.5307 86.1307 45 84.2387 45H77.4187ZM81.6867 41.414H83.9087C84.6274 41.414 85.1774 41.26 85.5587 40.952C85.9547 40.6293 86.1527 40.1673 86.1527 39.566C86.1527 39.0233 85.9547 38.5907 85.5587 38.268C85.1627 37.9453 84.62 37.784 83.9307 37.784H81.6867V41.414ZM92.2247 45V29.6H96.4927V45H92.2247ZM99.2253 45V29.6H111.611V33.23H103.449V35.562H110.841V38.928H103.449V41.37H111.721V45H99.2253ZM127.415 45.308C125.185 45.308 123.301 44.5527 121.761 43.042C120.235 41.5167 119.473 39.6027 119.473 37.3C119.473 35.0413 120.243 33.142 121.783 31.602C123.337 30.062 125.273 29.292 127.591 29.292C130.333 29.292 132.489 30.3773 134.059 32.548L130.935 34.968C129.981 33.78 128.852 33.186 127.547 33.186C126.476 33.186 125.596 33.582 124.907 34.374C124.217 35.166 123.873 36.1413 123.873 37.3C123.873 38.4733 124.217 39.456 124.907 40.248C125.596 41.0253 126.476 41.414 127.547 41.414C128.295 41.414 128.933 41.26 129.461 40.952C129.989 40.6293 130.509 40.16 131.023 39.544L134.235 41.832C133.428 42.932 132.489 43.79 131.419 44.406C130.348 45.0073 129.013 45.308 127.415 45.308ZM136.071 45V29.6H148.457V33.23H140.295V35.562H147.687V38.928H140.295V41.37H148.567V45H136.071ZM150.745 45V29.6H157.345C159.31 29.6 160.865 30.084 162.009 31.052C163.168 32.0053 163.747 33.34 163.747 35.056C163.747 36.816 163.138 38.18 161.921 39.148C160.704 40.116 159.105 40.6 157.125 40.6H155.013V45H150.745ZM155.013 37.256H157.037C157.8 37.256 158.394 37.0727 158.819 36.706C159.259 36.3393 159.479 35.8407 159.479 35.21C159.479 34.55 159.259 34.0513 158.819 33.714C158.394 33.362 157.792 33.186 157.015 33.186H155.013V37.256ZM165.548 45V29.6H169.772V38.268L175.734 29.6H179.716V45H175.492V36.332L169.53 45H165.548ZM182.434 45V29.6H186.658V38.268L192.62 29.6H196.602V45H192.378V36.332L186.416 45H182.434ZM212.837 45.308C210.607 45.308 208.723 44.5527 207.183 43.042C205.657 41.5167 204.895 39.6027 204.895 37.3C204.895 35.0413 205.665 33.142 207.205 31.602C208.759 30.062 210.695 29.292 213.013 29.292C215.755 29.292 217.911 30.3773 219.481 32.548L216.357 34.968C215.403 33.78 214.274 33.186 212.969 33.186C211.898 33.186 211.018 33.582 210.329 34.374C209.639 35.166 209.295 36.1413 209.295 37.3C209.295 38.4733 209.639 39.456 210.329 40.248C211.018 41.0253 211.898 41.414 212.969 41.414C213.717 41.414 214.355 41.26 214.883 40.952C215.411 40.6293 215.931 40.16 216.445 39.544L219.657 41.832C218.85 42.932 217.911 43.79 216.841 44.406C215.77 45.0073 214.435 45.308 212.837 45.308ZM221.493 45V29.6H228.093C230.058 29.6 231.613 30.084 232.757 31.052C233.916 32.0053 234.495 33.34 234.495 35.056C234.495 36.816 233.886 38.18 232.669 39.148C231.452 40.116 229.853 40.6 227.873 40.6H225.761V45H221.493ZM225.761 37.256H227.785C228.548 37.256 229.142 37.0727 229.567 36.706C230.007 36.3393 230.227 35.8407 230.227 35.21C230.227 34.55 230.007 34.0513 229.567 33.714C229.142 33.362 228.54 33.186 227.763 33.186H225.761V37.256ZM235.064 45L241.62 29.49H245.734L252.29 45H247.714L246.592 42.25H240.652L239.552 45H235.064ZM241.906 38.928H245.36L243.644 34.55L241.906 38.928ZM259.724 45.286C258.096 45.286 256.754 45.0733 255.698 44.648C254.642 44.208 253.63 43.5627 252.662 42.712L254.884 39.874C256.101 41.0913 257.546 41.7 259.218 41.7C259.981 41.7 260.56 41.5607 260.956 41.282C261.367 41.0033 261.572 40.6367 261.572 40.182C261.572 39.2727 260.751 38.818 259.108 38.818H257.502V35.65H259.064C260.516 35.65 261.242 35.1807 261.242 34.242C261.242 33.846 261.066 33.5233 260.714 33.274C260.362 33.0247 259.893 32.9 259.306 32.9C258.646 32.9 257.942 33.0467 257.194 33.34C256.446 33.6187 255.83 33.978 255.346 34.418L253.234 31.91C255.009 30.1647 257.157 29.292 259.68 29.292C261.381 29.292 262.767 29.688 263.838 30.48C264.909 31.2573 265.444 32.2473 265.444 33.45C265.444 35.0633 264.674 36.2293 263.134 36.948C264.938 37.564 265.84 38.752 265.84 40.512C265.84 41.9053 265.283 43.0493 264.168 43.944C263.068 44.8387 261.587 45.286 259.724 45.286ZM271.464 45.22C270.159 45.22 268.927 44.8753 267.768 44.186L269.44 41.106C269.968 41.458 270.548 41.634 271.178 41.634C271.692 41.634 272.139 41.414 272.52 40.974L266.492 29.6H271.244L274.742 36.838L278.042 29.6H282.684L276.678 41.348C275.974 42.7413 275.219 43.7387 274.412 44.34C273.62 44.9267 272.638 45.22 271.464 45.22ZM86.111 79.308C83.8817 79.308 81.997 78.5527 80.457 77.042C78.9317 75.5167 78.169 73.6027 78.169 71.3C78.169 69.0413 78.939 67.142 80.479 65.602C82.0337 64.062 83.9697 63.292 86.287 63.292C89.0297 63.292 91.1857 64.3773 92.755 66.548L89.631 68.968C88.6777 67.78 87.5483 67.186 86.243 67.186C85.1723 67.186 84.2923 67.582 83.603 68.374C82.9137 69.166 82.569 70.1413 82.569 71.3C82.569 72.4733 82.9137 73.456 83.603 74.248C84.2923 75.0253 85.1723 75.414 86.243 75.414C86.991 75.414 87.629 75.26 88.157 74.952C88.685 74.6293 89.2057 74.16 89.719 73.544L92.931 75.832C92.1243 76.932 91.1857 77.79 90.115 78.406C89.0443 79.0073 87.7097 79.308 86.111 79.308ZM114.531 76.976C112.947 78.5307 110.974 79.308 108.613 79.308C106.252 79.308 104.279 78.538 102.695 76.998C101.126 75.4433 100.341 73.544 100.341 71.3C100.341 69.0707 101.133 67.1787 102.717 65.624C104.316 64.0693 106.296 63.292 108.657 63.292C111.018 63.292 112.984 64.0693 114.553 65.624C116.137 67.164 116.929 69.056 116.929 71.3C116.929 73.5293 116.13 75.4213 114.531 76.976ZM108.657 75.458C109.816 75.458 110.754 75.0547 111.473 74.248C112.206 73.4413 112.573 72.4587 112.573 71.3C112.573 70.156 112.199 69.1807 111.451 68.374C110.703 67.5527 109.757 67.142 108.613 67.142C107.469 67.142 106.53 67.5453 105.797 68.352C105.078 69.1587 104.719 70.1413 104.719 71.3C104.719 72.444 105.086 73.4267 105.819 74.248C106.567 75.0547 107.513 75.458 108.657 75.458ZM125.092 79.286C123.464 79.286 122.122 79.0733 121.066 78.648C120.01 78.208 118.998 77.5627 118.03 76.712L120.252 73.874C121.469 75.0913 122.914 75.7 124.586 75.7C125.349 75.7 125.928 75.5607 126.324 75.282C126.735 75.0033 126.94 74.6367 126.94 74.182C126.94 73.2727 126.119 72.818 124.476 72.818H122.87V69.65H124.432C125.884 69.65 126.61 69.1807 126.61 68.242C126.61 67.846 126.434 67.5233 126.082 67.274C125.73 67.0247 125.261 66.9 124.674 66.9C124.014 66.9 123.31 67.0467 122.562 67.34C121.814 67.6187 121.198 67.978 120.714 68.418L118.602 65.91C120.377 64.1647 122.525 63.292 125.048 63.292C126.749 63.292 128.135 63.688 129.206 64.48C130.277 65.2573 130.812 66.2473 130.812 67.45C130.812 69.0633 130.042 70.2293 128.502 70.948C130.306 71.564 131.208 72.752 131.208 74.512C131.208 75.9053 130.651 77.0493 129.536 77.944C128.436 78.8387 126.955 79.286 125.092 79.286ZM133.224 79V63.6H141.122C143 63.6 144.4 64.062 145.324 64.986C145.984 65.646 146.314 66.4893 146.314 67.516C146.314 69.1147 145.522 70.2587 143.938 70.948C144.936 71.2707 145.691 71.7327 146.204 72.334C146.732 72.9353 146.996 73.742 146.996 74.754C146.996 76.074 146.483 77.1153 145.456 77.878C144.43 78.626 143 79 141.166 79H133.224ZM137.382 75.568H140.682C142.046 75.568 142.728 75.084 142.728 74.116C142.728 73.192 142.032 72.73 140.638 72.73H137.382V75.568ZM137.382 69.738H140.066C141.416 69.738 142.09 69.276 142.09 68.352C142.09 67.472 141.445 67.032 140.154 67.032H137.382V69.738ZM152.559 79.22C151.254 79.22 150.022 78.8753 148.863 78.186L150.535 75.106C151.063 75.458 151.642 75.634 152.273 75.634C152.786 75.634 153.234 75.414 153.615 74.974L147.587 63.6H152.339L155.837 70.838L159.137 63.6H163.779L157.773 75.348C157.069 76.7413 156.314 77.7387 155.507 78.34C154.715 78.9267 153.732 79.22 152.559 79.22ZM173.796 79V73.61C172.667 74.27 171.354 74.6 169.858 74.6C168.245 74.6 166.983 74.1453 166.074 73.236C165.165 72.3267 164.71 71.0653 164.71 69.452V63.6H168.978V68.242C168.978 69.078 169.139 69.694 169.462 70.09C169.799 70.4713 170.342 70.662 171.09 70.662C172.205 70.662 173.107 70.3833 173.796 69.826V63.6H178.064V79H173.796ZM180.791 79V63.6H185.059V69.848L190.361 63.6H195.421L189.591 70.222L195.619 79H190.493L186.621 73.28L185.059 75.018V79H180.791ZM210.523 76.976C208.939 78.5307 206.966 79.308 204.605 79.308C202.244 79.308 200.271 78.538 198.687 76.998C197.118 75.4433 196.333 73.544 196.333 71.3C196.333 69.0707 197.125 67.1787 198.709 65.624C200.308 64.0693 202.288 63.292 204.649 63.292C207.01 63.292 208.976 64.0693 210.545 65.624C212.129 67.164 212.921 69.056 212.921 71.3C212.921 73.5293 212.122 75.4213 210.523 76.976ZM204.649 75.458C205.808 75.458 206.746 75.0547 207.465 74.248C208.198 73.4413 208.565 72.4587 208.565 71.3C208.565 70.156 208.191 69.1807 207.443 68.374C206.695 67.5527 205.749 67.142 204.605 67.142C203.461 67.142 202.522 67.5453 201.789 68.352C201.07 69.1587 200.711 70.1413 200.711 71.3C200.711 72.444 201.078 73.4267 201.811 74.248C202.559 75.0547 203.505 75.458 204.649 75.458ZM215.144 79V63.6H219.368V72.268L225.33 63.6H229.312V79H225.088V70.332L219.126 79H215.144ZM222.36 62.61C221.304 62.61 220.432 62.3167 219.742 61.73C219.068 61.1433 218.65 60.3147 218.488 59.244L220.82 58.826C221.143 59.706 221.656 60.146 222.36 60.146C223.079 60.146 223.6 59.706 223.922 58.826L226.254 59.244C226.093 60.3147 225.668 61.1433 224.978 61.73C224.304 62.3167 223.431 62.61 222.36 62.61Z" fill="white"/>
<defs>
<linearGradient id="paint0_linear_7374_38392" x1="162.55" y1="2" x2="142.118" y2="190.015" gradientUnits="userSpaceOnUse">
<stop stop-color="#5C53E8"/>
<stop offset="0.484005" stop-color="#14C3FB"/>
</linearGradient>
<linearGradient id="paint1_linear_7374_38392" x1="127.931" y1="2.0001" x2="121.012" y2="190.336" gradientUnits="userSpaceOnUse">
<stop stop-color="#15C3FB"/>
<stop offset="1" stop-color="#5264EB"/>
</linearGradient>
<linearGradient id="paint2_linear_7374_38392" x1="2" y1="96.531" x2="294" y2="96.531" gradientUnits="userSpaceOnUse">
<stop stop-color="#9A5BEB"/>
<stop offset="1" stop-color="#FF9FF9"/>
</linearGradient>
<linearGradient id="paint3_linear_7374_38392" x1="8.28279" y1="96.6482" x2="290.147" y2="97.4077" gradientUnits="userSpaceOnUse">
<stop stop-color="#FD9FF9"/>
<stop offset="1" stop-color="#9D5DEC"/>
</linearGradient>
</defs>
</svg>
