<svg width="295" height="192" viewBox="0 0 295 192" fill="none" xmlns="http://www.w3.org/2000/svg">
<path d="M24.3482 1C17.4643 1 11.7738 6.36639 11.3706 13.2385L1.74712 177.238C1.309 184.705 7.24568 191 14.7248 191H272.473C279.408 191 285.122 185.556 285.457 178.628L293.39 14.6281C293.749 7.21043 287.832 1 280.405 1H24.3482Z" fill="url(#paint0_linear_7374_38350)" stroke="url(#paint1_linear_7374_38350)" stroke-width="2"/>
<mask id="mask0_7374_38350" style="mask-type:alpha" maskUnits="userSpaceOnUse" x="0" y="0" width="295" height="192">
<path d="M24.3482 1C17.4643 1 11.7738 6.36639 11.3706 13.2385L1.74712 177.238C1.309 184.705 7.24568 191 14.7248 191H272.473C279.408 191 285.122 185.556 285.457 178.628L293.39 14.6281C293.749 7.21043 287.832 1 280.405 1H24.3482Z" fill="url(#paint2_linear_7374_38350)" stroke="url(#paint3_linear_7374_38350)" stroke-width="2"/>
</mask>
<g mask="url(#mask0_7374_38350)">
<path opacity="0.1" d="M124.146 95.0833L124.146 95.0831C123.531 95.2871 123.093 95.4792 122.811 95.654C122.54 95.822 122.503 95.9182 122.501 95.9175L124.146 95.0833ZM124.146 95.0833L124.159 95.0786M124.146 95.0833L124.159 95.0786M124.159 95.0786C131.948 92.2563 137.137 90.3955 139.729 89.4993L139.729 89.4992M124.159 95.0786L139.729 89.4992M139.729 89.4992C143.441 88.2143 145.671 87.4644 147.097 87.0339C148.53 86.6015 149.108 86.5059 149.535 86.5002L149.538 86.5002M139.729 89.4992L149.538 86.5002M149.538 86.5002C149.612 86.4987 149.754 86.5066 149.91 86.5378C150.07 86.5698 150.203 86.6183 150.287 86.674C150.351 86.7166 150.383 86.7599 150.404 86.7981C150.426 86.8403 150.441 86.8888 150.452 86.9489C150.48 87.1027 150.518 87.4403 150.49 87.673L150.49 87.6769M149.538 86.5002L150.49 87.6769M150.49 87.6769C150.092 91.1616 148.357 99.6601 147.475 103.601C147.3 104.382 147.051 104.848 146.807 105.118C146.573 105.377 146.328 105.473 146.097 105.491C145.445 105.542 144.855 105.366 144.222 105.057C143.903 104.901 143.581 104.715 143.236 104.511C143.18 104.478 143.123 104.445 143.066 104.41C142.774 104.238 142.466 104.055 142.145 103.88L142.144 103.88M150.49 87.6769L142.144 103.88M142.144 103.88C140.973 103.242 140.056 102.724 139.145 102.207C139.082 102.172 139.019 102.136 138.956 102.1C138.108 101.619 137.25 101.133 136.185 100.548L136.184 100.547M142.144 103.88L136.184 100.547M136.184 100.547C135.544 100.197 135.249 99.9266 135.132 99.7402C135.08 99.6571 135.07 99.6018 135.07 99.5661C135.069 99.5281 135.079 99.4742 135.12 99.3954C135.213 99.2185 135.417 99.0062 135.747 98.7273C135.889 98.6073 136.042 98.4846 136.207 98.3524C136.227 98.3364 136.248 98.3202 136.268 98.3039C136.454 98.1552 136.651 97.9962 136.846 97.8278C136.932 97.7548 137.334 97.4442 137.912 96.9975C138.629 96.4435 139.617 95.6801 140.608 94.9005C141.496 94.2027 142.38 93.4975 143.052 92.936C143.387 92.6559 143.674 92.4069 143.885 92.2103C143.989 92.1127 144.082 92.0216 144.153 91.9421C144.189 91.9027 144.225 91.8594 144.257 91.8147C144.282 91.7802 144.334 91.7035 144.363 91.6029L144.364 91.6002M136.184 100.547L144.364 91.6002M144.364 91.6002C144.392 91.4967 144.403 91.3526 144.377 91.2062C144.35 91.0516 144.27 90.8332 144.058 90.6747C143.861 90.5276 143.643 90.4991 143.49 90.4982C143.343 90.4974 143.202 90.523 143.121 90.5379L143.114 90.5391L143.111 90.5397M144.364 91.6002L143.111 90.5397M143.111 90.5397C143.032 90.5546 142.953 90.5893 142.919 90.6042L142.917 90.6054C142.865 90.6282 142.802 90.6583 142.729 90.694C142.583 90.7659 142.384 90.8688 142.133 91.0014C141.631 91.2672 140.909 91.6588 139.97 92.1756C138.09 93.2093 135.331 94.7479 131.693 96.7901L131.693 96.7901M143.111 90.5397L131.693 96.7901M131.693 96.7901L131.69 96.7917M131.693 96.7901L131.69 96.7917M131.69 96.7917C130.668 97.3744 129.796 97.6303 129.053 97.615L129.052 97.615M131.69 96.7917L129.052 97.615M129.052 97.615C128.168 97.5986 126.397 97.1869 125.022 96.8146C124.805 96.7558 124.599 96.7017 124.404 96.6505C123.818 96.4966 123.333 96.3695 122.965 96.2212C122.722 96.1233 122.592 96.0387 122.53 95.9761C122.496 95.9412 122.498 95.9331 122.5 95.9208C122.501 95.9195 122.501 95.9181 122.501 95.9166L129.052 97.615Z" stroke="white"/>
<path opacity="0.1" d="M33.3717 19.5955C38.743 17.7612 42.3238 16.5509 44.1142 15.9674C49.2313 14.2977 50.2923 14.0088 50.9849 14.0002C51.1359 13.9973 51.4785 14.0291 51.6996 14.1677C51.8875 14.2862 51.939 14.445 51.9611 14.5577C51.9832 14.6703 52.0164 14.9274 51.9906 15.1268C51.7143 17.4117 50.5133 22.9522 49.9055 25.5115C49.6476 26.5948 49.1392 26.9559 48.6456 26.9934C47.5772 27.0714 46.763 26.4388 45.7278 25.9073C44.1069 25.0754 43.1896 24.5554 41.6165 23.7408C39.7966 22.802 40.9755 22.2849 42.0144 21.4414C42.287 21.2219 46.9988 17.8594 47.0909 17.5532C47.102 17.5157 47.113 17.3741 47.0062 17.299C46.8993 17.2239 46.7409 17.2499 46.623 17.2702C46.4609 17.299 43.8711 18.6423 38.8535 21.297C38.1167 21.6927 37.4536 21.8863 36.8568 21.8747C36.1974 21.8632 34.9338 21.583 33.9943 21.3432C32.8413 21.0485 31.9239 20.8926 32.005 20.3957C32.0455 20.1328 32.5023 19.8671 33.3717 19.5955Z" fill="white"/>
<path opacity="0.1" d="M136.852 27.7477C144.103 25.2079 148.937 23.532 151.354 22.724C158.262 20.4122 159.695 20.0122 160.63 20.0002C160.833 19.9962 161.296 20.0402 161.594 20.2322C161.848 20.3962 161.918 20.6162 161.948 20.7722C161.977 20.9282 162.022 21.2841 161.987 21.5601C161.614 24.7239 159.993 32.3953 159.172 35.9391C158.824 37.439 158.138 37.9389 157.471 37.9909C156.029 38.0989 154.93 37.223 153.533 36.487C151.344 35.3351 150.106 34.6152 147.982 33.4872C145.525 32.1873 147.117 31.4714 148.519 30.3035C148.887 29.9995 155.248 25.3438 155.373 24.9199C155.388 24.8679 155.403 24.6719 155.258 24.5679C155.114 24.4639 154.9 24.4999 154.741 24.5279C154.522 24.5679 151.026 26.4278 144.252 30.1035C143.258 30.6515 142.362 30.9194 141.557 30.9034C140.666 30.8874 138.961 30.4995 137.692 30.1675C136.136 29.7595 134.897 29.5435 135.007 28.8556C135.061 28.4916 135.678 28.1236 136.852 27.7477Z" fill="white"/>
<path opacity="0.2" d="M4.84089 90.3562C19.8804 84.9944 29.9067 81.4564 34.9199 79.7508C49.2476 74.8702 52.2184 74.0258 54.1577 74.0005C54.5806 73.9921 55.5399 74.085 56.1588 74.4903C56.6849 74.8365 56.8293 75.3009 56.8912 75.6302C56.9531 75.9595 57.0459 76.711 56.9737 77.2936C56.2001 83.9727 52.8373 100.168 51.1353 107.649C50.4133 110.816 48.9898 111.871 47.6075 111.981C44.6161 112.209 42.3365 110.36 39.4379 108.806C34.8993 106.374 32.3308 104.854 27.9262 102.473C22.8305 99.7288 26.1314 98.2174 29.0403 95.7518C29.8036 95.1101 42.9967 85.2815 43.2545 84.3864C43.2855 84.2766 43.3164 83.8629 43.0173 83.6434C42.7182 83.4238 42.2746 83.4998 41.9445 83.5589C41.4907 83.6434 34.2391 87.5697 20.1898 95.3296C18.1268 96.4864 16.2701 97.0521 14.599 97.0184C12.7526 96.9846 9.21451 96.1655 6.58415 95.4647C3.3555 94.6034 0.78703 94.1475 1.01396 92.6951C1.12743 91.9267 2.40651 91.1499 4.84089 90.3562Z" fill="white"/>
<path opacity="0.2" d="M240.332 80.8998C249.463 77.6545 255.551 75.5131 258.594 74.4807C267.293 71.5267 269.097 71.0156 270.274 71.0003C270.531 70.9952 271.114 71.0514 271.489 71.2967C271.809 71.5063 271.896 71.7874 271.934 71.9867C271.972 72.186 272.028 72.6409 271.984 72.9935C271.514 77.0361 269.473 86.8385 268.439 91.3666C268.001 93.2831 267.137 93.922 266.297 93.9884C264.481 94.1264 263.097 93.0071 261.337 92.0668C258.582 90.5949 257.022 89.6749 254.348 88.2337C251.254 86.5727 253.258 85.6579 255.024 84.1656C255.488 83.7771 263.498 77.8283 263.655 77.2865C263.673 77.2201 263.692 76.9696 263.511 76.8368C263.329 76.7039 263.06 76.7499 262.859 76.7857C262.584 76.8368 258.181 79.2133 249.651 83.91C248.398 84.6102 247.271 84.9526 246.257 84.9322C245.136 84.9117 242.987 84.416 241.39 83.9918C239.43 83.4705 237.871 83.1945 238.008 82.3155C238.077 81.8504 238.854 81.3802 240.332 80.8998Z" fill="white"/>
<path opacity="0.1" d="M250.488 12.0297L250.488 12.0262C250.521 11.7242 250.478 11.3012 250.446 11.1109C250.42 10.9521 250.373 10.814 250.235 10.7099C250.141 10.6403 249.999 10.5827 249.83 10.5448C249.665 10.5078 249.514 10.4985 249.438 10.5002L250.488 12.0297ZM250.488 12.0297C250.063 16.2207 248.206 26.4264 247.263 31.1541C246.878 33.0802 246.183 33.4508 245.756 33.4899C245.067 33.5496 244.44 33.3414 243.761 32.9689C243.419 32.7816 243.074 32.5584 242.705 32.3135C242.645 32.2737 242.584 32.2332 242.523 32.1923C242.211 31.9851 241.882 31.7662 241.539 31.5561L241.539 31.5561M250.488 12.0297L241.539 31.5561M241.539 31.5561C240.287 30.7906 239.306 30.1686 238.332 29.549C238.265 29.5062 238.198 29.4635 238.131 29.4206C237.224 28.8434 236.306 28.2595 235.168 27.5574L235.167 27.557M241.539 31.5561L235.167 27.557M235.167 27.557C234.486 27.1383 234.159 26.8085 234.022 26.5632C233.908 26.3602 233.914 26.201 234.005 26.0072C234.114 25.7742 234.343 25.5099 234.694 25.1772C234.846 25.0327 235.011 24.8849 235.187 24.7264C235.209 24.7071 235.23 24.6878 235.252 24.6682C235.451 24.4897 235.661 24.2994 235.869 24.0981L235.167 27.557Z" stroke="white"/>
<path opacity="0.1" d="M79.7517 57.786L79.7448 57.7884C79.2607 57.9603 78.9235 58.1198 78.7109 58.2611C78.5709 58.3542 78.5209 58.4152 78.5048 58.438C78.5053 58.4385 78.5059 58.4391 78.5064 58.4398C78.5417 58.4783 78.6292 58.5428 78.8156 58.6232C79.0994 58.7458 79.4722 58.8506 79.9344 58.9806C80.0904 59.0245 80.2565 59.0712 80.4328 59.1224C80.9666 59.2774 81.5894 59.4444 82.1693 59.5741C82.7593 59.7061 83.2701 59.7913 83.5953 59.7978L83.5963 59.7978C84.1522 59.8101 84.8194 59.605 85.6209 59.1155L85.6238 59.1137L85.6238 59.1138C88.5092 57.3778 90.6979 56.0699 92.1891 55.1909C92.9343 54.7516 93.5073 54.4183 93.9067 54.1919C94.1059 54.079 94.265 53.9909 94.3821 53.929C94.4402 53.8983 94.4921 53.8718 94.5355 53.8514L94.5389 53.8498C94.5651 53.8373 94.6395 53.8021 94.7172 53.7863L94.7208 53.7856L94.7277 53.7842C94.7921 53.7717 94.9144 53.7477 95.0446 53.7485C95.1829 53.7493 95.3866 53.7775 95.5693 53.9236L95.2571 54.3141L95.5693 53.9236C95.7618 54.0775 95.828 54.283 95.8501 54.418C95.8714 54.5482 95.8631 54.6771 95.8386 54.7718L95.8379 54.7744C95.8129 54.8688 95.7667 54.941 95.7455 54.9727C95.7181 55.0139 95.6871 55.0532 95.6578 55.0881C95.5989 55.1583 95.5236 55.2378 95.4399 55.3215C95.2712 55.4905 95.0416 55.7034 94.7755 55.9419C94.2418 56.4202 93.5399 57.0204 92.8355 57.6137C92.0435 58.2808 91.2574 58.9319 90.6896 59.4022C90.2363 59.7776 89.9221 60.0379 89.855 60.0991C89.8547 60.0994 89.8545 60.0996 89.8542 60.0998L89.5165 59.7311C89.3509 59.884 89.1821 60.0287 89.0199 60.1679C88.0122 61.0322 87.2563 61.6805 89.059 62.738L79.7517 57.786ZM79.7517 57.786L79.7585 57.7833C85.9363 55.3843 90.0505 53.803 92.1051 53.0415L92.1053 53.0415C95.0493 51.9492 96.8155 51.3126 97.9439 50.9477C99.0795 50.5804 99.5222 50.5047 99.8397 50.5002L99.8435 50.5001C99.8916 50.4991 99.9947 50.5048 100.109 50.5293C100.226 50.5545 100.314 50.5908 100.364 50.6261C100.399 50.6516 100.417 50.6769 100.43 50.7014C100.444 50.7298 100.454 50.7652 100.463 50.8143C100.485 50.9433 100.514 51.2254 100.492 51.4169L100.492 51.4206C100.177 54.38 98.8015 61.6014 98.1019 64.9511L79.7517 57.786ZM78.5008 58.4338C78.4951 58.428 78.4991 58.4337 78.5004 58.4346C78.5005 58.4347 78.5007 58.4347 78.5007 58.4346L78.5008 58.4338M78.5008 58.4338L78.5008 58.4338M78.5008 58.4338C78.5009 58.4328 78.5011 58.4318 78.5012 58.4308L78.5008 58.4338M78.5008 58.4338L78.5008 58.4338" stroke="white"/>
</g>
<path d="M30.7878 46.24C29.6998 46.24 28.7718 46.112 28.0038 45.856L28.3158 42.28C28.6038 42.344 28.9638 42.376 29.3958 42.376C29.7158 42.376 29.9798 42.328 30.1878 42.232C30.3958 42.136 30.6198 41.888 30.8598 41.488C31.1158 41.072 31.3158 40.496 31.4598 39.76C31.6038 39.008 31.7238 37.944 31.8198 36.568C31.9158 35.176 31.9638 33.496 31.9638 31.528V29.2H44.8758V46H40.2198V33.28H36.3078V33.928C36.3078 35.928 36.2198 37.664 36.0438 39.136C35.8678 40.608 35.6198 41.8 35.2998 42.712C34.9958 43.608 34.6038 44.328 34.1238 44.872C33.6438 45.4 33.1398 45.76 32.6118 45.952C32.0998 46.144 31.4918 46.24 30.7878 46.24ZM51.7873 46.24C50.3633 46.24 49.0193 45.864 47.7553 45.112L49.5793 41.752C50.1553 42.136 50.7873 42.328 51.4753 42.328C52.0353 42.328 52.5233 42.088 52.9393 41.608L46.3633 29.2H51.5473L55.3633 37.096L58.9633 29.2H64.0273L57.4753 42.016C56.7073 43.536 55.8833 44.624 55.0033 45.28C54.1393 45.92 53.0673 46.24 51.7873 46.24ZM74.9552 46V40.12C73.7232 40.84 72.2912 41.2 70.6592 41.2C68.8992 41.2 67.5232 40.704 66.5312 39.712C65.5392 38.72 65.0432 37.344 65.0432 35.584V29.2H69.6992V34.264C69.6992 35.176 69.8752 35.848 70.2272 36.28C70.5952 36.696 71.1872 36.904 72.0032 36.904C73.2192 36.904 74.2032 36.6 74.9552 35.992V29.2H79.6112V46H74.9552ZM82.5857 46V29.2H87.2417V41.92H92.0177V29.2H96.6737V41.92H101.45V29.2H106.106V46H82.5857ZM109.07 46V29.2H113.678V38.656L120.182 29.2H124.526V46H119.918V36.544L113.414 46H109.07ZM127.492 46V29.2H141.004V33.16H132.1V35.704H140.164V39.376H132.1V42.04H141.124V46H127.492ZM150.156 46V29.2H154.812V35.488H160.788V29.2H165.444V46H160.788V39.616H154.812V46H150.156ZM183.318 43.792C181.59 45.488 179.438 46.336 176.862 46.336C174.286 46.336 172.134 45.496 170.406 43.816C168.694 42.12 167.838 40.048 167.838 37.6C167.838 35.168 168.702 33.104 170.43 31.408C172.174 29.712 174.334 28.864 176.91 28.864C179.486 28.864 181.63 29.712 183.342 31.408C185.07 33.088 185.934 35.152 185.934 37.6C185.934 40.032 185.062 42.096 183.318 43.792ZM176.91 42.136C178.174 42.136 179.198 41.696 179.982 40.816C180.782 39.936 181.182 38.864 181.182 37.6C181.182 36.352 180.774 35.288 179.958 34.408C179.142 33.512 178.11 33.064 176.862 33.064C175.614 33.064 174.59 33.504 173.79 34.384C173.006 35.264 172.614 36.336 172.614 37.6C172.614 38.848 173.014 39.92 173.814 40.816C174.63 41.696 175.662 42.136 176.91 42.136ZM188.359 46V29.2H196.975C199.023 29.2 200.551 29.704 201.559 30.712C202.279 31.432 202.639 32.352 202.639 33.472C202.639 35.216 201.775 36.464 200.047 37.216C201.135 37.568 201.959 38.072 202.519 38.728C203.095 39.384 203.383 40.264 203.383 41.368C203.383 42.808 202.823 43.944 201.703 44.776C200.583 45.592 199.023 46 197.023 46H188.359ZM192.895 42.256H196.495C197.983 42.256 198.727 41.728 198.727 40.672C198.727 39.664 197.967 39.16 196.447 39.16H192.895V42.256ZM192.895 35.896H195.823C197.295 35.896 198.031 35.392 198.031 34.384C198.031 33.424 197.327 32.944 195.919 32.944H192.895V35.896ZM205.515 46V29.2H210.123V38.656L216.627 29.2H220.971V46H216.363V36.544L209.859 46H205.515ZM223.937 46V29.2H228.593V35.488H234.569V29.2H239.225V46H234.569V39.616H228.593V46H223.937ZM242.195 46V29.2H246.851V36.016L252.635 29.2H258.155L251.795 36.424L258.371 46H252.779L248.555 39.76L246.851 41.656V46H242.195ZM259.726 46V29.2H264.334V38.656L270.838 29.2H275.182V46H270.574V36.544L264.07 46H259.726ZM47.2771 80V63.2H51.8851V72.656L58.3891 63.2H62.7331V80H58.1251V70.544L51.6211 80H47.2771ZM72.3552 80V63.2H77.0112V69.488H82.9872V63.2H87.6432V80H82.9872V73.616H77.0112V80H72.3552ZM105.517 77.792C103.789 79.488 101.637 80.336 99.061 80.336C96.485 80.336 94.333 79.496 92.605 77.816C90.893 76.12 90.037 74.048 90.037 71.6C90.037 69.168 90.901 67.104 92.629 65.408C94.373 63.712 96.533 62.864 99.109 62.864C101.685 62.864 103.829 63.712 105.541 65.408C107.269 67.088 108.133 69.152 108.133 71.6C108.133 74.032 107.261 76.096 105.517 77.792ZM99.109 76.136C100.373 76.136 101.397 75.696 102.181 74.816C102.981 73.936 103.381 72.864 103.381 71.6C103.381 70.352 102.973 69.288 102.157 68.408C101.341 67.512 100.309 67.064 99.061 67.064C97.813 67.064 96.789 67.504 95.989 68.384C95.205 69.264 94.813 70.336 94.813 71.6C94.813 72.848 95.213 73.92 96.013 74.816C96.829 75.696 97.861 76.136 99.109 76.136ZM110.558 80V63.2H119.174C121.222 63.2 122.75 63.704 123.758 64.712C124.478 65.432 124.838 66.352 124.838 67.472C124.838 69.216 123.974 70.464 122.246 71.216C123.334 71.568 124.158 72.072 124.718 72.728C125.294 73.384 125.582 74.264 125.582 75.368C125.582 76.808 125.022 77.944 123.902 78.776C122.782 79.592 121.222 80 119.222 80H110.558ZM115.094 76.256H118.694C120.182 76.256 120.926 75.728 120.926 74.672C120.926 73.664 120.166 73.16 118.646 73.16H115.094V76.256ZM115.094 69.896H118.022C119.494 69.896 120.23 69.392 120.23 68.384C120.23 67.424 119.526 66.944 118.118 66.944H115.094V69.896ZM127.715 80V63.2H132.371V68.48H134.915C137.011 68.48 138.699 68.976 139.979 69.968C141.259 70.944 141.899 72.352 141.899 74.192C141.899 76 141.291 77.424 140.075 78.464C138.859 79.488 137.219 80 135.155 80H127.715ZM132.371 76.088H134.795C135.579 76.088 136.179 75.92 136.595 75.584C137.027 75.232 137.243 74.728 137.243 74.072C137.243 73.48 137.027 73.008 136.595 72.656C136.163 72.304 135.571 72.128 134.819 72.128H132.371V76.088ZM143.867 80V63.2H148.523V80H143.867ZM151.504 80V63.2H165.016V67.16H156.112V69.704H164.176V73.376H156.112V76.04H165.136V80H151.504ZM182.256 80.336C179.824 80.336 177.768 79.512 176.088 77.864C174.424 76.2 173.592 74.112 173.592 71.6C173.592 69.136 174.432 67.064 176.112 65.384C177.808 63.704 179.92 62.864 182.448 62.864C185.44 62.864 187.792 64.048 189.504 66.416L186.096 69.056C185.056 67.76 183.824 67.112 182.4 67.112C181.232 67.112 180.272 67.544 179.52 68.408C178.768 69.272 178.392 70.336 178.392 71.6C178.392 72.88 178.768 73.952 179.52 74.816C180.272 75.664 181.232 76.088 182.4 76.088C183.216 76.088 183.912 75.92 184.488 75.584C185.064 75.232 185.632 74.72 186.192 74.048L189.696 76.544C188.816 77.744 187.792 78.68 186.624 79.352C185.456 80.008 184 80.336 182.256 80.336ZM191.699 80V63.2H205.211V67.16H196.307V69.704H204.371V73.376H196.307V76.04H205.331V80H191.699ZM207.707 80V63.2H214.907C217.051 63.2 218.747 63.728 219.995 64.784C221.259 65.824 221.891 67.28 221.891 69.152C221.891 71.072 221.227 72.56 219.899 73.616C218.571 74.672 216.827 75.2 214.667 75.2H212.363V80H207.707ZM212.363 71.552H214.571C215.403 71.552 216.051 71.352 216.515 70.952C216.995 70.552 217.235 70.008 217.235 69.32C217.235 68.6 216.995 68.056 216.515 67.688C216.051 67.304 215.395 67.112 214.547 67.112H212.363V71.552ZM223.855 80V63.2H228.463V72.656L234.967 63.2H239.311V80H234.703V70.544L228.199 80H223.855ZM242.277 80V63.2H246.885V72.656L253.389 63.2H257.733V80H253.125V70.544L246.621 80H242.277Z" fill="white"/>
<defs>
<linearGradient id="paint0_linear_7374_38350" x1="162" y1="2" x2="141.5" y2="190" gradientUnits="userSpaceOnUse">
<stop stop-color="#9A5BEB"/>
<stop offset="1" stop-color="#FF9FF9"/>
</linearGradient>
<linearGradient id="paint1_linear_7374_38350" x1="127.5" y1="2.0001" x2="120.557" y2="190.334" gradientUnits="userSpaceOnUse">
<stop stop-color="#FD9FF9"/>
<stop offset="1" stop-color="#9D5DEC"/>
</linearGradient>
<linearGradient id="paint2_linear_7374_38350" x1="2" y1="96.531" x2="293" y2="96.531" gradientUnits="userSpaceOnUse">
<stop stop-color="#9A5BEB"/>
<stop offset="1" stop-color="#FF9FF9"/>
</linearGradient>
<linearGradient id="paint3_linear_7374_38350" x1="8.26127" y1="96.6482" x2="289.16" y2="97.4025" gradientUnits="userSpaceOnUse">
<stop stop-color="#FD9FF9"/>
<stop offset="1" stop-color="#9D5DEC"/>
</linearGradient>
</defs>
</svg>
