<svg width="976" height="153" viewBox="0 0 976 153" fill="none" xmlns="http://www.w3.org/2000/svg">
<path d="M55.6449 2C43.7615 2 33.3903 10.057 30.4522 21.5715L5.70043 118.572C1.50533 135.012 13.9261 151 30.8932 151H926.023C938.32 151 948.935 142.385 951.466 130.352L971.87 33.3519C975.269 17.1928 962.939 2 946.427 2H55.6449Z" fill="url(#paint0_linear_7374_38351)" stroke="url(#paint1_linear_7374_38351)" stroke-width="4"/>
<mask id="mask0_7374_38351" style="mask-type:alpha" maskUnits="userSpaceOnUse" x="0" y="4" width="976" height="145">
<rect y="4" width="976" height="145" rx="56" fill="#D78FEF"/>
</mask>
<g mask="url(#mask0_7374_38351)">
<path opacity="0.1" d="M247.538 79.0519C257.475 75.1011 264.099 72.4942 267.411 71.2374C276.878 67.6412 278.841 67.019 280.122 67.0004C280.401 66.9942 281.035 67.0626 281.444 67.3612C281.792 67.6163 281.887 67.9585 281.928 68.2012C281.969 68.4438 282.03 68.9976 281.983 69.4269C281.471 74.3483 279.25 86.2816 278.125 91.7941C277.648 94.1273 276.708 94.905 275.794 94.9859C273.818 95.1539 272.312 93.7913 270.396 92.6465C267.398 90.8546 265.701 89.7347 262.791 87.9802C259.424 85.9581 261.605 84.8444 263.527 83.0276C264.031 82.5548 272.748 75.3127 272.918 74.6531C272.939 74.5723 272.959 74.2674 272.761 74.1056C272.564 73.9439 272.271 73.9999 272.053 74.0434C271.753 74.1056 266.962 76.9987 257.679 82.7166C256.316 83.5689 255.089 83.9858 253.985 83.9609C252.765 83.936 250.427 83.3325 248.69 82.8161C246.556 82.1815 244.859 81.8455 245.009 80.7754C245.084 80.2092 245.929 79.6368 247.538 79.0519Z" fill="white"/>
<path opacity="0.1" d="M55.6398 110.661L55.6331 110.663C54.866 110.93 54.3128 111.183 53.9519 111.417C53.5679 111.666 53.5092 111.824 53.5042 111.86L53.5037 111.864C53.4915 111.947 53.5065 112.003 53.5802 112.082C53.675 112.184 53.8555 112.301 54.1607 112.43C54.6243 112.625 55.2348 112.793 55.9656 112.994C56.2064 113.06 56.4602 113.13 56.7262 113.205L55.6398 110.661ZM55.6398 110.661L55.6465 110.659M55.6398 110.661L55.6465 110.659M55.6465 110.659C65.3156 106.99 71.7574 104.57 74.9759 103.405L74.9761 103.405M55.6465 110.659L74.9761 103.405M74.9761 103.405C79.5831 101.735 82.3534 100.759 84.1264 100.199C85.9064 99.636 86.6353 99.5079 87.1797 99.5003L87.1834 99.5002M74.9761 103.405L87.1834 99.5002M87.1834 99.5002C87.2815 99.4982 87.4657 99.5091 87.6663 99.5511C87.8708 99.594 88.0512 99.6607 88.173 99.7454C88.3535 99.8721 88.408 100.034 88.4377 100.202C88.4741 100.409 88.5246 100.868 88.4864 101.196L88.486 101.199M87.1834 99.5002L88.486 101.199M88.486 101.199C87.9919 105.74 85.8357 116.797 84.7409 121.918M88.486 101.199L84.7409 121.918M84.7409 121.918C84.5193 122.953 84.2009 123.587 83.8766 123.962C83.5627 124.326 83.2319 124.462 82.9206 124.489C82.0878 124.556 81.3372 124.32 80.5414 123.913C80.1413 123.708 79.7383 123.465 79.3094 123.199C79.2394 123.156 79.1687 123.112 79.0973 123.068C78.7356 122.843 78.3552 122.607 77.9579 122.38L77.9578 122.38C76.5029 121.551 75.3637 120.876 74.2328 120.205C74.1547 120.159 74.0766 120.112 73.9985 120.066C72.9453 119.441 71.8803 118.808 70.5591 118.048L70.5584 118.048C69.7605 117.59 69.3706 117.226 69.2054 116.951C69.1284 116.823 69.1049 116.721 69.1036 116.639C69.1024 116.554 69.124 116.456 69.1846 116.336C69.315 116.077 69.5868 115.785 69.9958 115.423C70.1733 115.266 70.3652 115.106 70.5699 114.934C70.5948 114.913 70.6199 114.892 70.6452 114.871C70.8757 114.678 71.1192 114.472 71.36 114.255C71.4676 114.159 71.9723 113.75 72.6966 113.164C73.5874 112.443 74.8101 111.453 76.0343 110.446C77.1364 109.539 78.2323 108.623 79.0643 107.894C79.4796 107.531 79.8346 107.209 80.0932 106.956C80.2218 106.83 80.3333 106.715 80.4183 106.616C80.4605 106.567 80.5021 106.515 80.5374 106.463C80.5661 106.421 80.6186 106.34 80.6463 106.237L80.647 106.235C80.6759 106.125 80.6879 105.964 80.6601 105.798C80.6313 105.626 80.5476 105.383 80.3189 105.204L80.0111 105.598L80.3189 105.204C80.1019 105.035 79.8569 104.999 79.6767 104.998C79.5029 104.997 79.3361 105.029 79.2346 105.048L79.2279 105.049L79.2244 105.05C79.1387 105.067 79.0501 105.108 79.0078 105.127L79.0062 105.128C78.9441 105.157 78.8671 105.195 78.7778 105.241C78.5983 105.334 78.352 105.467 78.041 105.639C77.4181 105.984 76.5229 106.493 75.3568 107.165C73.024 108.508 69.5991 110.508 65.0829 113.163L65.0829 113.163L65.0801 113.165C63.7997 113.929 62.6998 114.27 61.753 114.25L61.752 114.25C61.2113 114.239 60.3871 114.103 59.4618 113.901C58.5465 113.701 57.5656 113.443 56.7264 113.205L84.7409 121.918Z" stroke="white"/>
<path opacity="0.1" d="M68.7833 24.3172C75.7659 21.9185 80.421 20.3358 82.7485 19.5727C89.4007 17.3893 90.78 17.0116 91.6803 17.0002C91.8767 16.9965 92.3221 17.038 92.6094 17.2193C92.8537 17.3742 92.9207 17.582 92.9495 17.7293C92.9782 17.8766 93.0213 18.2128 92.9878 18.4735C92.6286 21.4615 91.0673 28.7067 90.2771 32.0536C89.9419 33.4701 89.281 33.9423 88.6392 33.9914C87.2504 34.0934 86.1919 33.2661 84.8462 32.5711C82.7389 31.4832 81.5464 30.8032 79.5015 29.738C77.1356 28.5103 78.6681 27.8341 80.0187 26.7311C80.3731 26.444 86.4985 22.047 86.6182 21.6466C86.6325 21.5974 86.6469 21.4123 86.508 21.3141C86.3691 21.2159 86.1632 21.2499 86.01 21.2764C85.7992 21.3141 82.4324 23.0707 75.9096 26.5422C74.9517 27.0597 74.0897 27.3128 73.3138 27.2977C72.4566 27.2826 70.8139 26.9162 69.5926 26.6026C68.0936 26.2173 66.9011 26.0133 67.0065 25.3636C67.0592 25.0199 67.653 24.6723 68.7833 24.3172Z" fill="white"/>
<path opacity="0.1" d="M16.2634 64.4694C25.1259 61.3652 31.0343 59.3169 33.9885 58.3294C42.4317 55.5038 44.1823 55.015 45.3251 55.0003C45.5743 54.9954 46.1396 55.0492 46.5043 55.2838C46.8143 55.4843 46.8994 55.7531 46.9359 55.9438C46.9723 56.1344 47.0271 56.5695 46.9845 56.9068C46.5286 60.7736 44.547 70.1498 43.544 74.4811C43.1185 76.3143 42.2797 76.9253 41.4652 76.9889C39.7024 77.1209 38.359 76.0503 36.6509 75.1508C33.9764 73.7429 32.4628 72.863 29.8672 71.4844C26.8644 69.8956 28.8096 69.0206 30.5237 67.5931C30.9735 67.2216 38.748 61.5314 38.9 61.0132C38.9182 60.9496 38.9365 60.7101 38.7602 60.583C38.5839 60.4559 38.3225 60.4999 38.128 60.5341C37.8606 60.583 33.5873 62.8562 25.3083 67.3487C24.0926 68.0184 22.9984 68.346 22.0137 68.3264C20.9256 68.3069 18.8407 67.8327 17.2907 67.4269C15.3881 66.9283 13.8745 66.6643 14.0082 65.8235C14.0751 65.3786 14.8288 64.9289 16.2634 64.4694Z" fill="white"/>
<path opacity="0.1" d="M128.87 137.66C147.938 130.888 160.65 126.419 167.006 124.264C185.171 118.099 188.938 117.033 191.396 117.001C191.933 116.99 193.149 117.107 193.933 117.619C194.6 118.057 194.784 118.643 194.862 119.059C194.941 119.475 195.058 120.424 194.967 121.16C193.986 129.597 189.722 150.054 187.564 159.504C186.649 163.504 184.844 164.837 183.092 164.976C179.299 165.264 176.409 162.928 172.734 160.965C166.979 157.894 163.723 155.974 158.139 152.966C151.678 149.5 155.863 147.59 159.551 144.476C160.519 143.665 177.246 131.25 177.573 130.12C177.612 129.981 177.651 129.458 177.272 129.181C176.893 128.904 176.33 129 175.912 129.074C175.336 129.181 166.142 134.141 148.33 143.943C145.714 145.404 143.36 146.118 141.242 146.076C138.901 146.033 134.415 144.999 131.08 144.113C126.986 143.025 123.73 142.449 124.018 140.615C124.162 139.644 125.783 138.663 128.87 137.66Z" fill="white"/>
<path opacity="0.1" d="M412.31 83.6864C437.018 74.9382 453.49 69.1657 461.726 66.3828C485.264 58.4198 490.145 57.0422 493.33 57.0008C494.025 56.9871 495.601 57.1386 496.618 57.7999C497.482 58.3647 497.72 59.1225 497.821 59.6598C497.923 60.197 498.075 61.4232 497.957 62.3738C496.686 73.2712 491.161 99.695 488.365 111.901C487.179 117.068 484.84 118.79 482.57 118.969C477.655 119.341 473.91 116.324 469.148 113.789C461.692 109.821 457.472 107.341 450.236 103.456C441.864 98.9786 447.287 96.5126 452.066 92.4898C453.32 91.4427 474.995 75.4066 475.418 73.9463C475.469 73.7672 475.52 73.0921 475.028 72.7339C474.537 72.3757 473.808 72.4997 473.266 72.5961C472.52 72.7339 460.607 79.1401 437.526 91.8009C434.137 93.6883 431.087 94.6114 428.341 94.5563C425.308 94.5012 419.495 93.1648 415.174 92.0214C409.87 90.6161 405.65 89.8722 406.023 87.5026C406.209 86.2489 408.311 84.9814 412.31 83.6864Z" fill="white"/>
<path opacity="0.1" d="M177.855 28.3792L177.848 28.3818C177.017 28.689 176.415 28.9818 176.021 29.2548C175.608 29.5399 175.517 29.7374 175.506 29.8239L175.505 29.8276C175.487 29.9604 175.517 30.0547 175.609 30.1591C175.719 30.2849 175.921 30.4231 176.252 30.5715C176.755 30.7978 177.419 30.9918 178.211 31.2236C178.472 31.2999 178.746 31.3803 179.034 31.4672M177.855 28.3792L178.889 31.9458M177.855 28.3792L177.862 28.3764C188.337 24.143 195.316 21.3514 198.803 20.0066L198.803 20.0065C203.794 18.0793 206.795 16.9534 208.717 16.3067C210.645 15.6574 211.437 15.5091 212.028 15.5004L212.032 15.5003C212.139 15.4979 212.339 15.5105 212.557 15.5592C212.779 15.6087 212.978 15.6863 213.116 15.7883M177.855 28.3792L209.425 41.4667M179.034 31.4672L178.889 31.9458M179.034 31.4672C179.034 31.4672 179.034 31.4672 179.034 31.4672L178.889 31.9458M179.034 31.4672C179.943 31.7419 181.006 32.0387 181.998 32.2696C183.001 32.503 183.894 32.6603 184.481 32.6725L184.482 32.6725C185.51 32.6961 186.705 32.3015 188.096 31.4172L188.099 31.4154C192.991 28.3521 196.702 26.0446 199.229 24.4943C200.492 23.7194 201.462 23.1324 202.136 22.7345C202.473 22.5358 202.739 22.3823 202.934 22.2756C203.03 22.2225 203.113 22.1785 203.18 22.1457L203.181 22.145C203.227 22.1226 203.321 22.0764 203.412 22.0573L203.415 22.0565L203.423 22.055C203.533 22.0327 203.712 21.9962 203.9 21.9974C204.096 21.9986 204.356 22.0408 204.582 22.2288L204.262 22.6132M178.889 31.9458C180.721 32.4991 183.185 33.1457 184.471 33.1724C185.635 33.1991 186.928 32.7524 188.364 31.8392C198.149 25.7129 203.199 22.6132 203.515 22.5465C203.745 22.4999 204.054 22.4399 204.262 22.6132M204.262 22.6132L204.582 22.2288C204.814 22.4222 204.896 22.6814 204.925 22.8613C204.953 23.0385 204.94 23.2094 204.912 23.3205L204.912 23.323C204.886 23.4247 204.836 23.5083 204.806 23.5558C204.77 23.6123 204.726 23.6697 204.681 23.7255C204.591 23.8374 204.472 23.9689 204.333 24.1136C204.054 24.4044 203.67 24.7749 203.221 25.1943C202.32 26.0345 201.133 27.0906 199.939 28.1371C198.616 29.2973 197.293 30.438 196.327 31.2702C195.54 31.949 194.991 32.4225 194.874 32.5337M204.262 22.6132C204.47 22.7865 204.449 23.1131 204.427 23.1998C204.289 23.7451 198.784 28.4914 196.035 30.8624C195.222 31.5635 194.649 32.0568 194.528 32.1725C194.247 32.4424 193.961 32.6978 193.686 32.9433C191.977 34.4686 190.695 35.6126 193.752 37.4787C195.18 38.3539 196.331 39.0816 197.472 39.8032C198.782 40.6318 200.08 41.4522 201.769 42.4784C202.19 42.7341 202.592 43 202.984 43.259C204.471 44.2424 205.81 45.1273 207.459 44.9849C208.421 44.8982 209.413 44.0649 209.916 41.5651M212.021 15.0004C210.67 15.0204 208.601 15.687 198.623 19.5401L212.021 15.0004ZM212.021 15.0004C212.315 14.9937 212.983 15.0671 213.414 15.387M212.021 15.0004L194.874 32.5337M194.874 32.5337C194.614 32.7837 194.35 33.0203 194.101 33.2434C194.073 33.2678 194.046 33.2921 194.019 33.3162C193.797 33.5141 193.589 33.7001 193.396 33.8819C192.954 34.2986 192.65 34.6429 192.502 34.9569C192.372 35.2313 192.363 35.4721 192.527 35.7639C192.716 36.0986 193.149 36.5247 194.013 37.052L194.013 37.0524C195.444 37.9294 196.598 38.6589 197.739 39.3804C197.824 39.4339 197.908 39.4874 197.993 39.5409C199.218 40.3155 200.452 41.0935 202.029 42.051L202.029 42.0511C202.459 42.3122 202.87 42.5843 203.262 42.8434C203.339 42.8946 203.416 42.9453 203.492 42.9953C203.957 43.3015 204.394 43.5831 204.829 43.8201C205.695 44.2919 206.511 44.5647 207.415 44.4868C207.753 44.4561 208.12 44.2979 208.471 43.865C208.833 43.4188 209.183 42.6718 209.425 41.4667M194.874 32.5337L209.425 41.4667M209.916 41.5651C211.101 35.6589 213.443 22.8732 213.982 17.6002C214.032 17.1402 213.967 16.547 213.924 16.287C213.881 16.027 213.781 15.6604 213.414 15.387M209.916 41.5651L209.425 41.4665C209.425 41.4666 209.425 41.4667 209.425 41.4667M209.916 41.5651L209.425 41.4667M213.414 15.387L213.115 15.7878C213.115 15.788 213.116 15.7882 213.116 15.7883M213.414 15.387L213.116 15.7885C213.116 15.7884 213.116 15.7884 213.116 15.7883M213.116 15.7883C213.329 15.9475 213.396 16.1588 213.431 16.3688C213.471 16.611 213.528 17.1523 213.485 17.5459L213.484 17.5494C212.948 22.7949 210.611 35.5579 209.425 41.4667" stroke="white"/>
<path opacity="0.1" d="M388.855 20.3792L388.848 20.3818C388.017 20.689 387.415 20.9818 387.021 21.2548C386.608 21.5399 386.517 21.7374 386.506 21.8239L386.505 21.8276C386.487 21.9604 386.517 22.0547 386.609 22.1591C386.719 22.2849 386.921 22.4231 387.252 22.5715C387.755 22.7978 388.419 22.9918 389.211 23.2236C389.472 23.2999 389.746 23.3803 390.034 23.4672M388.855 20.3792L389.889 23.9458M388.855 20.3792L388.862 20.3764C399.337 16.143 406.316 13.3514 409.803 12.0066L409.803 12.0065C414.794 10.0793 417.795 8.95342 419.717 8.30672C421.645 7.65744 422.437 7.50911 423.028 7.50037L423.032 7.50028C423.139 7.49786 423.339 7.51054 423.557 7.55924C423.779 7.6087 423.978 7.68634 424.116 7.78833M388.855 20.3792L420.425 33.4667M390.034 23.4672L389.889 23.9458M390.034 23.4672C390.034 23.4672 390.034 23.4672 390.034 23.4672L389.889 23.9458M390.034 23.4672C390.943 23.7419 392.006 24.0387 392.998 24.2696C394.001 24.503 394.894 24.6603 395.481 24.6725L395.482 24.6725C396.51 24.6961 397.705 24.3015 399.096 23.4172L399.099 23.4154C403.991 20.3521 407.702 18.0446 410.229 16.4943C411.492 15.7194 412.462 15.1324 413.136 14.7345C413.473 14.5358 413.739 14.3823 413.934 14.2756C414.03 14.2225 414.113 14.1785 414.18 14.1457L414.181 14.145C414.227 14.1226 414.321 14.0764 414.412 14.0573L414.415 14.0565L414.423 14.055C414.533 14.0327 414.712 13.9962 414.9 13.9974C415.096 13.9986 415.356 14.0408 415.582 14.2288L415.262 14.6132M389.889 23.9458C391.721 24.4991 394.185 25.1457 395.471 25.1724C396.635 25.1991 397.928 24.7524 399.364 23.8392C409.149 17.7129 414.199 14.6132 414.515 14.5465C414.745 14.4999 415.054 14.4399 415.262 14.6132M415.262 14.6132L415.582 14.2288C415.814 14.4222 415.896 14.6814 415.925 14.8613C415.953 15.0385 415.94 15.2094 415.912 15.3205L415.912 15.323C415.886 15.4247 415.836 15.5083 415.806 15.5558C415.77 15.6123 415.726 15.6697 415.681 15.7255C415.591 15.8374 415.472 15.9689 415.333 16.1136C415.054 16.4044 414.67 16.7749 414.221 17.1943C413.32 18.0345 412.133 19.0906 410.939 20.1371C409.616 21.2973 408.293 22.438 407.327 23.2702C406.54 23.949 405.991 24.4225 405.874 24.5337M415.262 14.6132C415.47 14.7865 415.449 15.1131 415.427 15.1998C415.289 15.7451 409.784 20.4914 407.035 22.8624C406.222 23.5635 405.649 24.0568 405.528 24.1725C405.247 24.4424 404.961 24.6978 404.686 24.9433C402.977 26.4686 401.695 27.6126 404.752 29.4787C406.18 30.3539 407.331 31.0816 408.472 31.8032C409.782 32.6318 411.08 33.4522 412.769 34.4784C413.19 34.7341 413.592 35 413.984 35.259C415.471 36.2424 416.81 37.1273 418.459 36.9849C419.421 36.8982 420.413 36.0649 420.916 33.5651M423.021 7.00041C421.67 7.0204 419.601 7.68702 409.623 11.5401L423.021 7.00041ZM423.021 7.00041C423.315 6.99374 423.983 7.06707 424.414 7.38704M423.021 7.00041L405.874 24.5337M405.874 24.5337C405.614 24.7837 405.35 25.0203 405.101 25.2434C405.073 25.2678 405.046 25.2921 405.019 25.3162C404.797 25.5141 404.589 25.7001 404.396 25.8819C403.954 26.2986 403.65 26.6429 403.502 26.9569C403.372 27.2313 403.363 27.4721 403.527 27.7639C403.716 28.0986 404.149 28.5247 405.013 29.052L405.013 29.0524C406.444 29.9294 407.598 30.6589 408.739 31.3804C408.824 31.4339 408.908 31.4874 408.993 31.5409C410.218 32.3155 411.452 33.0935 413.029 34.051L413.029 34.0511C413.459 34.3122 413.87 34.5843 414.262 34.8434C414.339 34.8946 414.416 34.9453 414.492 34.9953C414.957 35.3015 415.394 35.5831 415.829 35.8201C416.695 36.2919 417.511 36.5647 418.415 36.4868C418.753 36.4561 419.12 36.2979 419.471 35.865C419.833 35.4188 420.183 34.6718 420.425 33.4667M405.874 24.5337L420.425 33.4667M420.916 33.5651C422.101 27.6589 424.443 14.8732 424.982 9.60021C425.032 9.14025 424.967 8.54696 424.924 8.28698C424.881 8.027 424.781 7.66036 424.414 7.38704M420.916 33.5651L420.425 33.4665C420.425 33.4666 420.425 33.4667 420.425 33.4667M420.916 33.5651L420.425 33.4667M424.414 7.38704L424.115 7.78781C424.115 7.78798 424.116 7.78816 424.116 7.78833M424.414 7.38704L424.116 7.78851C424.116 7.78845 424.116 7.78839 424.116 7.78833M424.116 7.78833C424.329 7.94747 424.396 8.15875 424.431 8.36875C424.471 8.61099 424.528 9.15229 424.485 9.54587L424.484 9.54939C423.948 14.7949 421.611 27.5579 420.425 33.4667" stroke="white"/>
</g>
<path d="M88.264 68.32C86.8133 68.32 85.576 68.1493 84.552 67.808L84.968 63.04C85.352 63.1253 85.832 63.168 86.408 63.168C86.8347 63.168 87.1867 63.104 87.464 62.976C87.7413 62.848 88.04 62.5173 88.36 61.984C88.7013 61.4293 88.968 60.6613 89.16 59.68C89.352 58.6773 89.512 57.2587 89.64 55.424C89.768 53.568 89.832 51.328 89.832 48.704V45.6H107.048V68H100.84V51.04H95.624V51.904C95.624 54.5707 95.5067 56.8853 95.272 58.848C95.0373 60.8107 94.7067 62.4 94.28 63.616C93.8747 64.8107 93.352 65.7707 92.712 66.496C92.072 67.2 91.4 67.68 90.696 67.936C90.0133 68.192 89.2027 68.32 88.264 68.32ZM116.263 68.32C114.365 68.32 112.573 67.8187 110.887 66.816L113.319 62.336C114.087 62.848 114.93 63.104 115.847 63.104C116.594 63.104 117.245 62.784 117.799 62.144L109.031 45.6H115.943L121.031 56.128L125.831 45.6H132.583L123.847 62.688C122.823 64.7147 121.725 66.1653 120.551 67.04C119.399 67.8933 117.97 68.32 116.263 68.32ZM147.154 68V60.16C145.511 61.12 143.602 61.6 141.426 61.6C139.079 61.6 137.244 60.9387 135.922 59.616C134.599 58.2933 133.938 56.4587 133.938 54.112V45.6H140.146V52.352C140.146 53.568 140.38 54.464 140.85 55.04C141.34 55.5947 142.13 55.872 143.218 55.872C144.839 55.872 146.151 55.4667 147.154 54.656V45.6H153.362V68H147.154ZM157.328 68V45.6H163.536V62.56H169.904V45.6H176.112V62.56H182.48V45.6H188.688V68H157.328ZM192.64 68V45.6H198.784V58.208L207.456 45.6H213.248V68H207.104V55.392L198.432 68H192.64ZM217.203 68V45.6H235.219V50.88H223.347V54.272H234.099V59.168H223.347V62.72H235.379V68H217.203ZM247.422 68V45.6H253.63V53.984H261.597V45.6H267.806V68H261.597V59.488H253.63V68H247.422ZM291.637 65.056C289.333 67.3173 286.464 68.448 283.029 68.448C279.595 68.448 276.725 67.328 274.421 65.088C272.139 62.8267 270.997 60.064 270.997 56.8C270.997 53.5573 272.149 50.8053 274.453 48.544C276.779 46.2827 279.659 45.152 283.093 45.152C286.528 45.152 289.387 46.2827 291.669 48.544C293.973 50.784 295.125 53.536 295.125 56.8C295.125 60.0427 293.963 62.7947 291.637 65.056ZM283.093 62.848C284.779 62.848 286.144 62.2613 287.189 61.088C288.256 59.9147 288.789 58.4853 288.789 56.8C288.789 55.136 288.245 53.7173 287.157 52.544C286.069 51.3493 284.693 50.752 283.029 50.752C281.365 50.752 280 51.3387 278.933 52.512C277.888 53.6853 277.365 55.1147 277.365 56.8C277.365 58.464 277.899 59.8933 278.965 61.088C280.053 62.2613 281.429 62.848 283.093 62.848ZM298.359 68V45.6H309.847C312.578 45.6 314.615 46.272 315.959 47.616C316.919 48.576 317.399 49.8027 317.399 51.296C317.399 53.6213 316.247 55.2853 313.943 56.288C315.394 56.7573 316.492 57.4293 317.239 58.304C318.007 59.1787 318.391 60.352 318.391 61.824C318.391 63.744 317.644 65.2587 316.151 66.368C314.658 67.456 312.578 68 309.911 68H298.359ZM304.407 63.008H309.207C311.191 63.008 312.183 62.304 312.183 60.896C312.183 59.552 311.17 58.88 309.143 58.88H304.407V63.008ZM304.407 54.528H308.311C310.274 54.528 311.255 53.856 311.255 52.512C311.255 51.232 310.316 50.592 308.439 50.592H304.407V54.528ZM321.234 68V45.6H327.378V58.208L336.05 45.6H341.842V68H335.698V55.392L327.026 68H321.234ZM345.797 68V45.6H352.005V53.984H359.972V45.6H366.181V68H359.972V59.488H352.005V68H345.797ZM370.14 68V45.6H376.348V54.688L384.06 45.6H391.42L382.94 55.232L391.708 68H384.252L378.62 59.68L376.348 62.208V68H370.14ZM393.515 68V45.6H399.659V58.208L408.331 45.6H414.123V68H407.979V55.392L399.307 68H393.515ZM86.984 112V89.6H93.128V102.208L101.8 89.6H107.592V112H101.448V99.392L92.776 112H86.984ZM120.422 112V89.6H126.63V97.984H134.597V89.6H140.806V112H134.597V103.488H126.63V112H120.422ZM164.637 109.056C162.333 111.317 159.464 112.448 156.029 112.448C152.595 112.448 149.725 111.328 147.421 109.088C145.139 106.827 143.997 104.064 143.997 100.8C143.997 97.5573 145.149 94.8053 147.453 92.544C149.779 90.2827 152.659 89.152 156.093 89.152C159.528 89.152 162.387 90.2827 164.669 92.544C166.973 94.784 168.125 97.536 168.125 100.8C168.125 104.043 166.963 106.795 164.637 109.056ZM156.093 106.848C157.779 106.848 159.144 106.261 160.189 105.088C161.256 103.915 161.789 102.485 161.789 100.8C161.789 99.136 161.245 97.7173 160.157 96.544C159.069 95.3493 157.693 94.752 156.029 94.752C154.365 94.752 153 95.3387 151.933 96.512C150.888 97.6853 150.365 99.1147 150.365 100.8C150.365 102.464 150.899 103.893 151.965 105.088C153.053 106.261 154.429 106.848 156.093 106.848ZM171.359 112V89.6H182.847C185.578 89.6 187.615 90.272 188.959 91.616C189.919 92.576 190.399 93.8027 190.399 95.296C190.399 97.6213 189.247 99.2853 186.943 100.288C188.394 100.757 189.492 101.429 190.239 102.304C191.007 103.179 191.391 104.352 191.391 105.824C191.391 107.744 190.644 109.259 189.151 110.368C187.658 111.456 185.578 112 182.911 112H171.359ZM177.407 107.008H182.207C184.191 107.008 185.183 106.304 185.183 104.896C185.183 103.552 184.17 102.88 182.143 102.88H177.407V107.008ZM177.407 98.528H181.311C183.274 98.528 184.255 97.856 184.255 96.512C184.255 95.232 183.316 94.592 181.439 94.592H177.407V98.528ZM194.234 112V89.6H200.442V96.64H203.834C206.629 96.64 208.879 97.3013 210.586 98.624C212.293 99.9253 213.146 101.803 213.146 104.256C213.146 106.667 212.335 108.565 210.714 109.952C209.093 111.317 206.906 112 204.154 112H194.234ZM200.442 106.784H203.674C204.719 106.784 205.519 106.56 206.074 106.112C206.65 105.643 206.938 104.971 206.938 104.096C206.938 103.307 206.65 102.677 206.074 102.208C205.498 101.739 204.709 101.504 203.706 101.504H200.442V106.784ZM215.77 112V89.6H221.978V112H215.77ZM225.953 112V89.6H243.969V94.88H232.097V98.272H242.849V103.168H232.097V106.72H244.129V112H225.953ZM266.956 112.448C263.713 112.448 260.972 111.349 258.732 109.152C256.513 106.933 255.404 104.149 255.404 100.8C255.404 97.5147 256.524 94.752 258.764 92.512C261.025 90.272 263.841 89.152 267.212 89.152C271.201 89.152 274.337 90.7307 276.62 93.888L272.076 97.408C270.689 95.68 269.046 94.816 267.148 94.816C265.59 94.816 264.31 95.392 263.308 96.544C262.305 97.696 261.804 99.1147 261.804 100.8C261.804 102.507 262.305 103.936 263.308 105.088C264.31 106.219 265.59 106.784 267.148 106.784C268.236 106.784 269.164 106.56 269.932 106.112C270.7 105.643 271.457 104.96 272.204 104.064L276.876 107.392C275.702 108.992 274.337 110.24 272.78 111.136C271.222 112.011 269.281 112.448 266.956 112.448ZM279.547 112V89.6H297.562V94.88H285.691V98.272H296.443V103.168H285.691V106.72H297.723V112H279.547ZM300.89 112V89.6H310.49C313.349 89.6 315.61 90.304 317.274 91.712C318.96 93.0987 319.802 95.04 319.802 97.536C319.802 100.096 318.917 102.08 317.146 103.488C315.376 104.896 313.05 105.6 310.17 105.6H307.098V112H300.89ZM307.098 100.736H310.042C311.152 100.736 312.016 100.469 312.634 99.936C313.274 99.4027 313.594 98.6773 313.594 97.76C313.594 96.8 313.274 96.0747 312.634 95.584C312.016 95.072 311.141 94.816 310.01 94.816H307.098V100.736ZM322.422 112V89.6H328.566V102.208L337.238 89.6H343.03V112H336.885V99.392L328.214 112H322.422ZM346.984 112V89.6H353.128V102.208L361.8 89.6H367.592V112H361.448V99.392L352.776 112H346.984Z" fill="white"/>
<defs>
<linearGradient id="paint0_linear_7374_38351" x1="7.0802e-07" y1="76.9095" x2="976" y2="76.9096" gradientUnits="userSpaceOnUse">
<stop stop-color="#9A5BEB"/>
<stop offset="1" stop-color="#FF9FF9"/>
</linearGradient>
<linearGradient id="paint1_linear_7374_38351" x1="21" y1="76.9999" x2="963" y2="87.9999" gradientUnits="userSpaceOnUse">
<stop stop-color="#FD9FF9"/>
<stop offset="1" stop-color="#9D5DEC"/>
</linearGradient>
</defs>
</svg>
